<svg width="228" height="54" viewBox="0 0 228 54" fill="none" xmlns="http://www.w3.org/2000/svg">
<path d="M13.6523 23.3L9.95234 27.25V36H0.152344V0.999998H9.95234V15.55L23.5023 0.999998H34.4023L20.1023 16.5L35.1523 36H23.6523L13.6523 23.3ZM59.5398 29.2H44.7398L41.9898 36H31.8898L47.3398 0.999998H57.0898L72.5898 36H62.2898L59.5398 29.2ZM56.6398 21.9L52.1398 10.7L47.6398 21.9H56.6398ZM191.771 53.126C190.931 53.126 190.18 52.958 189.517 52.622C188.854 52.286 188.336 51.8193 187.963 51.222C187.599 50.6247 187.417 49.948 187.417 49.192C187.417 48.436 187.599 47.764 187.963 47.176C188.336 46.5787 188.854 46.1167 189.517 45.79C190.18 45.454 190.931 45.286 191.771 45.286C192.63 45.286 193.372 45.4727 193.997 45.846C194.622 46.21 195.066 46.7187 195.327 47.372L193.269 48.422C192.924 47.7407 192.42 47.4 191.757 47.4C191.281 47.4 190.884 47.5587 190.567 47.876C190.259 48.1933 190.105 48.632 190.105 49.192C190.105 49.7613 190.259 50.2093 190.567 50.536C190.884 50.8533 191.281 51.012 191.757 51.012C192.42 51.012 192.924 50.6713 193.269 49.99L195.327 51.04C195.066 51.6933 194.622 52.2067 193.997 52.58C193.372 52.944 192.63 53.126 191.771 53.126ZM196.301 42.612H198.961V53H196.301V42.612ZM204.498 53.126C203.686 53.126 202.953 52.958 202.3 52.622C201.647 52.286 201.133 51.8193 200.76 51.222C200.396 50.6247 200.214 49.948 200.214 49.192C200.214 48.4453 200.396 47.7733 200.76 47.176C201.133 46.5787 201.642 46.1167 202.286 45.79C202.939 45.454 203.677 45.286 204.498 45.286C205.319 45.286 206.057 45.454 206.71 45.79C207.363 46.1167 207.872 46.5787 208.236 47.176C208.6 47.764 208.782 48.436 208.782 49.192C208.782 49.948 208.6 50.6247 208.236 51.222C207.872 51.8193 207.363 52.286 206.71 52.622C206.057 52.958 205.319 53.126 204.498 53.126ZM204.498 51.012C204.965 51.012 205.347 50.8533 205.646 50.536C205.945 50.2093 206.094 49.7613 206.094 49.192C206.094 48.632 205.945 48.1933 205.646 47.876C205.347 47.5587 204.965 47.4 204.498 47.4C204.031 47.4 203.649 47.5587 203.35 47.876C203.051 48.1933 202.902 48.632 202.902 49.192C202.902 49.7613 203.051 50.2093 203.35 50.536C203.649 50.8533 204.031 51.012 204.498 51.012ZM214.956 45.286C215.899 45.286 216.655 45.566 217.224 46.126C217.803 46.686 218.092 47.5307 218.092 48.66V53H215.432V49.094C215.432 48.058 215.017 47.54 214.186 47.54C213.729 47.54 213.36 47.6893 213.08 47.988C212.809 48.2867 212.674 48.7347 212.674 49.332V53H210.014V45.412H212.548V46.238C212.847 45.93 213.201 45.6967 213.612 45.538C214.023 45.37 214.471 45.286 214.956 45.286ZM227.628 49.22C227.628 49.2387 227.614 49.458 227.586 49.878H222.07C222.182 50.27 222.396 50.5733 222.714 50.788C223.04 50.9933 223.446 51.096 223.932 51.096C224.296 51.096 224.608 51.0447 224.87 50.942C225.14 50.8393 225.411 50.6713 225.682 50.438L227.082 51.894C226.344 52.7153 225.266 53.126 223.848 53.126C222.961 53.126 222.182 52.958 221.51 52.622C220.838 52.286 220.315 51.8193 219.942 51.222C219.578 50.6247 219.396 49.948 219.396 49.192C219.396 48.4453 219.573 47.778 219.928 47.19C220.292 46.5927 220.791 46.126 221.426 45.79C222.06 45.454 222.774 45.286 223.568 45.286C224.324 45.286 225.01 45.4447 225.626 45.762C226.242 46.07 226.727 46.5227 227.082 47.12C227.446 47.708 227.628 48.408 227.628 49.22ZM223.582 47.176C223.171 47.176 222.826 47.2927 222.546 47.526C222.275 47.7593 222.102 48.0767 222.028 48.478H225.136C225.061 48.0767 224.884 47.7593 224.604 47.526C224.333 47.2927 223.992 47.176 223.582 47.176Z" fill="white"/>
<path d="M108.696 0.999998V36H98.7965V22.35H85.2965V36H75.3965V0.999998H85.2965V14.15H98.7965V0.999998H108.696ZM133.33 36.7C129.63 36.7 126.296 35.9167 123.33 34.35C120.396 32.7833 118.08 30.6167 116.38 27.85C114.713 25.0833 113.88 21.9667 113.88 18.5C113.88 15.0333 114.713 11.9167 116.38 9.15C118.08 6.38333 120.396 4.21667 123.33 2.65C126.296 1.08333 129.63 0.299998 133.33 0.299998C137.03 0.299998 140.346 1.08333 143.28 2.65C146.246 4.21667 148.563 6.38333 150.23 9.15C151.93 11.9167 152.78 15.0333 152.78 18.5C152.78 21.9667 151.93 25.0833 150.23 27.85C148.563 30.6167 146.246 32.7833 143.28 34.35C140.346 35.9167 137.03 36.7 133.33 36.7ZM133.33 28.5C135.096 28.5 136.696 28.0833 138.13 27.25C139.563 26.4167 140.696 25.25 141.53 23.75C142.363 22.2167 142.78 20.4667 142.78 18.5C142.78 16.5333 142.363 14.8 141.53 13.3C140.696 11.7667 139.563 10.5833 138.13 9.75C136.696 8.91667 135.096 8.5 133.33 8.5C131.563 8.5 129.963 8.91667 128.53 9.75C127.096 10.5833 125.963 11.7667 125.13 13.3C124.296 14.8 123.88 16.5333 123.88 18.5C123.88 20.4667 124.296 22.2167 125.13 23.75C125.963 25.25 127.096 26.4167 128.53 27.25C129.963 28.0833 131.563 28.5 133.33 28.5ZM175.615 36.7C171.915 36.7 168.582 35.9167 165.615 34.35C162.682 32.7833 160.365 30.6167 158.665 27.85C156.998 25.0833 156.165 21.9667 156.165 18.5C156.165 15.0333 156.998 11.9167 158.665 9.15C160.365 6.38333 162.682 4.21667 165.615 2.65C168.582 1.08333 171.915 0.299998 175.615 0.299998C179.315 0.299998 182.632 1.08333 185.565 2.65C188.532 4.21667 190.848 6.38333 192.515 9.15C194.215 11.9167 195.065 15.0333 195.065 18.5C195.065 21.9667 194.215 25.0833 192.515 27.85C190.848 30.6167 188.532 32.7833 185.565 34.35C182.632 35.9167 179.315 36.7 175.615 36.7ZM175.615 28.5C177.382 28.5 178.982 28.0833 180.415 27.25C181.848 26.4167 182.982 25.25 183.815 23.75C184.648 22.2167 185.065 20.4667 185.065 18.5C185.065 16.5333 184.648 14.8 183.815 13.3C182.982 11.7667 181.848 10.5833 180.415 9.75C178.982 8.91667 177.382 8.5 175.615 8.5C173.848 8.5 172.248 8.91667 170.815 9.75C169.382 10.5833 168.248 11.7667 167.415 13.3C166.582 14.8 166.165 16.5333 166.165 18.5C166.165 20.4667 166.582 22.2167 167.415 23.75C168.248 25.25 169.382 26.4167 170.815 27.25C172.248 28.0833 173.848 28.5 175.615 28.5ZM207.212 8.85H196.462V0.999998H227.812V8.85H217.112V36H207.212V8.85Z" fill="#F6E084"/>
</svg>
